# xmcd
#
# Track frame offsets:
#	150
#	12246
#	23329
#	35575
#	49160
#	58999
#	71716
#	83532
#	94303
#	110237
#	123458
#	134772
#	148197
#	161795
#	173406
#	187182
#	198763
#	213139
#	224600
#	236352
#	249459
#	262177
#	275112
#	288087
#	300614
#	311270
#	321623
#	335787
#	350024
#	362587
#	373191
#	382773
#	394582
#
# Disc length: 5390 seconds
# Revision: 3
# Processed by: cddbd v1.5.2PL0 Copyright (c) Steve Scherf et al.
# Submitted via: dBpowerAMP V12.0
#
DISCID=10150c21
DTITLE=Various Artist - The Sun Blues Box 6 - Kings Of Rhythm
DYEAR=2013
DGENRE=Blues
TTITLE0=Raymond Hill - Long Gone Raymond
TTITLE1=Raymond Hill - My Baby Left Me
TTITLE2=Raymond Hill - I'm Back Pretty Baby
TTITLE3=Raymond Hill - Somebody's Been Carryin' Your Rollin' On
TTITLE4=Bonnie Turner - Love Is A Gamble
TTITLE5=Bonnie Turner - Old Brother Jack
TTITLE6=Tot Randolph - Blues Train
TTITLE7=Johnny O'Neal - Ugly Woman (Peg Leg Baby)
TTITLE8=Johnny O'Neal - Dead Letter Blues
TTITLE9=Johnny O'Neal - Johnny's Dream
TTITLE10=Little Milton - Beggin' My Baby
TTITLE11=Little Milton - Somebody Told Me
TTITLE12=Little Milton - I Love My Baby
TTITLE13=Houston Boines - Carry My Business On
TTITLE14=Houston Boines - Standing In The Courthouse Crying
TTITLE15=Little Milton - If You Love Me
TTITLE16=Little Milton - Alone And Blue
TTITLE17=Little Milton - She's My Queen
TTITLE18=Little Milton - Re-Beep
TTITLE19=Little Milton - Lookin' For My Baby
TTITLE20=Little Milton - Rode That Train (Looking For My Baby)
TTITLE21=Little Milton - Homesick For My Baby
TTITLE22=Earl Hooker - Steel Guitar Rag
TTITLE23=Earl Hooker - Blue Guitar
TTITLE24=Earl Hooker - The Drive
TTITLE25=Earl Hooker - Move On Down The Line
TTITLE26=Earl Hooker - The Hucklebuck
TTITLE27=Boyd Gilmore - Believe I'll Settle Down
TTITLE28=Pinetop Perkins - Pinetop's Boogie Woogie
TTITLE29=Sammy Lewis/ Willie Johnson Combo - Gonna Leave You Baby
TTITLE30=Sammy Lewis/ Willie Johnson Combo - I Feel So Worried (1)
TTITLE31=Sammy Lewis/ Willie Johnson Combo - I Feel So Worried (2)
TTITLE32=Sammy Lewis/ Willie Johnson Combo - So Long Baby Goodbye
EXTD=
EXTT0=
EXTT1=
EXTT2=
EXTT3=
EXTT4=
EXTT5=
EXTT6=
EXTT7=
EXTT8=
EXTT9=
EXTT10=
EXTT11=
EXTT12=
EXTT13=
EXTT14=
EXTT15=
EXTT16=
EXTT17=
EXTT18=
EXTT19=
EXTT20=
EXTT21=
EXTT22=
EXTT23=
EXTT24=
EXTT25=
EXTT26=
EXTT27=
EXTT28=
EXTT29=
EXTT30=
EXTT31=
EXTT32=
PLAYORDER=
